# xmcd
#
# Track frame offsets:
#	182
#	27145
#	60660
#	76512
#	92500
#
# Disc length: 1441 seconds
#
# Revision: 0
# Processed by: cddbd v1.5.1PL2 Copyright (c) Steve Scherf et al.
# Submitted via: audiograbber 1.81.03
#
DISCID=28059f05
DTITLE=DALARAS - MISA CRIOLLA
DYEAR=1900
DGENRE=Vocal
TTITLE0=Kyrie
TTITLE1=Gloria
TTITLE2=Credo
TTITLE3=Sanctus
TTITLE4=Agnus dei
EXTD=
EXTT0=
EXTT1=
EXTT2=
EXTT3=
EXTT4=
PLAYORDER=
